<svg xmlns="http://www.w3.org/2000/svg" xmlns:xlink="http://www.w3.org/1999/xlink" width="1024" zoomAndPan="magnify" viewBox="0 0 768 767.999994" height="1024" preserveAspectRatio="xMidYMid meet" version="1.0"><path fill="#fbb739" d="M 292.121094 253.890625 L 274.914062 253.890625 L 274.914062 236.683594 C 274.914062 235.796875 274.867188 234.914062 274.78125 234.035156 C 274.695312 233.152344 274.5625 232.277344 274.390625 231.410156 C 274.21875 230.542969 274 229.683594 273.746094 228.839844 C 273.488281 227.992188 273.1875 227.160156 272.847656 226.34375 C 272.511719 225.523438 272.132812 224.726562 271.714844 223.945312 C 271.296875 223.164062 270.84375 222.40625 270.351562 221.671875 C 269.859375 220.933594 269.332031 220.222656 268.769531 219.539062 C 268.210938 218.855469 267.617188 218.199219 266.988281 217.574219 C 266.363281 216.949219 265.710938 216.355469 265.023438 215.792969 C 264.339844 215.230469 263.632812 214.707031 262.894531 214.214844 C 262.160156 213.722656 261.402344 213.265625 260.621094 212.847656 C 259.839844 212.429688 259.042969 212.050781 258.222656 211.714844 C 257.40625 211.375 256.574219 211.074219 255.726562 210.816406 C 254.882812 210.558594 254.023438 210.34375 253.15625 210.171875 C 252.289062 209.996094 251.414062 209.867188 250.53125 209.78125 C 249.652344 209.691406 248.769531 209.648438 247.882812 209.648438 L 218.386719 209.648438 C 217.503906 209.648438 216.621094 209.691406 215.738281 209.78125 C 214.859375 209.867188 213.984375 209.996094 213.117188 210.171875 C 212.25 210.34375 211.390625 210.558594 210.542969 210.816406 C 209.699219 211.074219 208.863281 211.375 208.046875 211.714844 C 207.230469 212.050781 206.429688 212.429688 205.652344 212.847656 C 204.871094 213.265625 204.113281 213.722656 203.375 214.214844 C 202.640625 214.703125 201.929688 215.230469 201.246094 215.792969 C 200.5625 216.355469 199.90625 216.949219 199.28125 217.574219 C 198.65625 218.199219 198.0625 218.855469 197.5 219.539062 C 196.941406 220.222656 196.414062 220.933594 195.921875 221.671875 C 195.429688 222.40625 194.976562 223.164062 194.558594 223.945312 C 194.140625 224.726562 193.761719 225.523438 193.421875 226.339844 C 193.082031 227.160156 192.785156 227.992188 192.527344 228.839844 C 192.269531 229.683594 192.054688 230.542969 191.882812 231.410156 C 191.707031 232.277344 191.578125 233.152344 191.492188 234.035156 C 191.402344 234.914062 191.359375 235.796875 191.359375 236.683594 L 191.359375 253.890625 L 174.148438 253.890625 C 173.265625 253.890625 172.382812 253.9375 171.5 254.023438 C 170.621094 254.109375 169.746094 254.242188 168.878906 254.414062 C 168.011719 254.589844 167.152344 254.804688 166.308594 255.0625 C 165.460938 255.320312 164.628906 255.617188 163.8125 255.957031 C 162.992188 256.296875 162.195312 256.675781 161.414062 257.089844 C 160.632812 257.507812 159.875 257.964844 159.140625 258.457031 C 158.40625 258.949219 157.695312 259.472656 157.011719 260.035156 C 156.328125 260.597656 155.671875 261.191406 155.046875 261.816406 C 154.421875 262.441406 153.828125 263.097656 153.265625 263.78125 C 152.703125 264.464844 152.175781 265.175781 151.683594 265.910156 C 151.191406 266.648438 150.738281 267.40625 150.320312 268.183594 C 149.902344 268.964844 149.523438 269.765625 149.1875 270.582031 C 148.847656 271.398438 148.546875 272.230469 148.289062 273.078125 C 148.035156 273.925781 147.816406 274.78125 147.644531 275.648438 C 147.472656 276.515625 147.339844 277.390625 147.253906 278.273438 C 147.164062 279.152344 147.121094 280.035156 147.121094 280.921875 L 147.121094 310.417969 C 147.121094 311.300781 147.164062 312.183594 147.253906 313.066406 C 147.339844 313.945312 147.472656 314.820312 147.644531 315.6875 C 147.816406 316.554688 148.035156 317.414062 148.289062 318.257812 C 148.546875 319.105469 148.847656 319.9375 149.1875 320.753906 C 149.523438 321.574219 149.902344 322.371094 150.320312 323.152344 C 150.738281 323.933594 151.191406 324.691406 151.683594 325.425781 C 152.175781 326.160156 152.703125 326.871094 153.265625 327.554688 C 153.828125 328.238281 154.421875 328.894531 155.046875 329.519531 C 155.671875 330.144531 156.328125 330.738281 157.011719 331.300781 C 157.695312 331.863281 158.40625 332.390625 159.140625 332.882812 C 159.875 333.375 160.632812 333.828125 161.414062 334.246094 C 162.195312 334.664062 162.992188 335.042969 163.8125 335.378906 C 164.628906 335.71875 165.460938 336.019531 166.308594 336.277344 C 167.152344 336.53125 168.011719 336.75 168.878906 336.921875 C 169.746094 337.09375 170.621094 337.226562 171.5 337.3125 C 172.382812 337.402344 173.265625 337.445312 174.148438 337.445312 L 191.359375 337.445312 L 191.359375 354.65625 C 191.359375 355.539062 191.402344 356.421875 191.492188 357.304688 C 191.578125 358.183594 191.710938 359.058594 191.882812 359.925781 C 192.054688 360.792969 192.269531 361.652344 192.527344 362.496094 C 192.785156 363.34375 193.085938 364.175781 193.425781 364.992188 C 193.761719 365.8125 194.140625 366.609375 194.558594 367.390625 C 194.976562 368.171875 195.429688 368.929688 195.921875 369.664062 C 196.414062 370.398438 196.941406 371.109375 197.503906 371.792969 C 198.066406 372.476562 198.660156 373.132812 199.285156 373.757812 C 199.910156 374.382812 200.566406 374.976562 201.25 375.539062 C 201.933594 376.101562 202.644531 376.628906 203.378906 377.121094 C 204.113281 377.609375 204.871094 378.066406 205.652344 378.484375 C 206.433594 378.902344 207.230469 379.277344 208.050781 379.617188 C 208.867188 379.957031 209.699219 380.253906 210.546875 380.511719 C 211.390625 380.769531 212.25 380.984375 213.117188 381.160156 C 213.984375 381.332031 214.859375 381.464844 215.738281 381.550781 C 216.621094 381.640625 217.503906 381.683594 218.386719 381.683594 L 247.882812 381.683594 C 248.769531 381.683594 249.652344 381.640625 250.53125 381.550781 C 251.414062 381.464844 252.289062 381.332031 253.15625 381.160156 C 254.023438 380.984375 254.878906 380.769531 255.726562 380.511719 C 256.574219 380.253906 257.40625 379.957031 258.222656 379.617188 C 259.039062 379.277344 259.839844 378.902344 260.621094 378.484375 C 261.398438 378.066406 262.15625 377.609375 262.894531 377.121094 C 263.628906 376.628906 264.339844 376.101562 265.023438 375.539062 C 265.707031 374.976562 266.363281 374.382812 266.988281 373.757812 C 267.613281 373.132812 268.207031 372.476562 268.769531 371.792969 C 269.332031 371.109375 269.855469 370.398438 270.347656 369.664062 C 270.839844 368.929688 271.296875 368.171875 271.714844 367.390625 C 272.128906 366.609375 272.507812 365.8125 272.847656 364.992188 C 273.1875 364.175781 273.484375 363.34375 273.742188 362.496094 C 274 361.648438 274.214844 360.792969 274.390625 359.925781 C 274.5625 359.058594 274.695312 358.183594 274.78125 357.300781 C 274.867188 356.421875 274.914062 355.539062 274.914062 354.652344 L 274.914062 337.445312 L 292.121094 337.445312 C 293.007812 337.445312 293.890625 337.402344 294.769531 337.3125 C 295.652344 337.226562 296.527344 337.09375 297.394531 336.921875 C 298.261719 336.75 299.117188 336.53125 299.964844 336.277344 C 300.8125 336.019531 301.644531 335.71875 302.460938 335.378906 C 303.277344 335.042969 304.078125 334.664062 304.859375 334.246094 C 305.636719 333.828125 306.398438 333.375 307.132812 332.882812 C 307.867188 332.390625 308.578125 331.863281 309.261719 331.300781 C 309.945312 330.738281 310.601562 330.144531 311.226562 329.519531 C 311.851562 328.894531 312.445312 328.238281 313.007812 327.554688 C 313.570312 326.871094 314.097656 326.160156 314.585938 325.425781 C 315.078125 324.691406 315.535156 323.933594 315.953125 323.152344 C 316.371094 322.371094 316.746094 321.574219 317.085938 320.753906 C 317.425781 319.9375 317.722656 319.105469 317.980469 318.257812 C 318.238281 317.414062 318.453125 316.554688 318.628906 315.6875 C 318.800781 314.820312 318.933594 313.945312 319.019531 313.066406 C 319.105469 312.183594 319.152344 311.300781 319.152344 310.417969 L 319.152344 280.921875 C 319.152344 280.035156 319.105469 279.152344 319.019531 278.273438 C 318.933594 277.390625 318.800781 276.515625 318.628906 275.648438 C 318.453125 274.78125 318.238281 273.925781 317.980469 273.078125 C 317.722656 272.230469 317.425781 271.398438 317.085938 270.582031 C 316.746094 269.765625 316.371094 268.964844 315.953125 268.183594 C 315.535156 267.40625 315.078125 266.648438 314.585938 265.910156 C 314.097656 265.175781 313.570312 264.464844 313.007812 263.78125 C 312.445312 263.097656 311.851562 262.441406 311.226562 261.816406 C 310.601562 261.191406 309.945312 260.597656 309.261719 260.035156 C 308.578125 259.472656 307.867188 258.949219 307.132812 258.457031 C 306.398438 257.964844 305.636719 257.507812 304.859375 257.089844 C 304.078125 256.675781 303.277344 256.296875 302.460938 255.957031 C 301.644531 255.617188 300.8125 255.320312 299.964844 255.0625 C 299.117188 254.804688 298.261719 254.589844 297.394531 254.414062 C 296.527344 254.242188 295.652344 254.109375 294.769531 254.023438 C 293.890625 253.9375 293.007812 253.890625 292.121094 253.890625 Z M 294.578125 310.417969 C 294.578125 310.742188 294.515625 311.054688 294.390625 311.355469 C 294.265625 311.65625 294.089844 311.921875 293.859375 312.152344 C 293.628906 312.382812 293.363281 312.558594 293.0625 312.683594 C 292.761719 312.808594 292.449219 312.871094 292.121094 312.871094 L 262.625 312.871094 C 261.820312 312.871094 261.019531 312.949219 260.230469 313.105469 C 259.4375 313.265625 258.667969 313.496094 257.921875 313.804688 C 257.179688 314.113281 256.46875 314.492188 255.800781 314.941406 C 255.128906 315.390625 254.507812 315.898438 253.9375 316.46875 C 253.367188 317.039062 252.855469 317.660156 252.410156 318.332031 C 251.960938 319.003906 251.582031 319.710938 251.273438 320.457031 C 250.964844 321.203125 250.730469 321.96875 250.574219 322.761719 C 250.417969 323.550781 250.339844 324.351562 250.339844 325.160156 L 250.339844 354.65625 C 250.339844 354.980469 250.277344 355.292969 250.152344 355.59375 C 250.027344 355.894531 249.851562 356.160156 249.621094 356.390625 C 249.390625 356.621094 249.125 356.796875 248.824219 356.921875 C 248.523438 357.046875 248.210938 357.109375 247.882812 357.109375 L 218.386719 357.109375 C 218.0625 357.109375 217.75 357.046875 217.449219 356.921875 C 217.148438 356.796875 216.882812 356.621094 216.652344 356.390625 C 216.421875 356.160156 216.246094 355.894531 216.121094 355.59375 C 215.996094 355.292969 215.933594 354.980469 215.933594 354.65625 L 215.933594 325.160156 C 215.933594 324.351562 215.855469 323.550781 215.699219 322.761719 C 215.539062 321.96875 215.308594 321.203125 215 320.457031 C 214.691406 319.710938 214.3125 319.003906 213.863281 318.332031 C 213.414062 317.660156 212.90625 317.039062 212.335938 316.46875 C 211.765625 315.898438 211.144531 315.390625 210.472656 314.941406 C 209.800781 314.492188 209.09375 314.113281 208.347656 313.804688 C 207.601562 313.496094 206.835938 313.265625 206.042969 313.105469 C 205.25 312.949219 204.453125 312.871094 203.644531 312.871094 L 174.148438 312.871094 C 173.824219 312.871094 173.511719 312.808594 173.210938 312.683594 C 172.910156 312.558594 172.644531 312.382812 172.414062 312.152344 C 172.183594 311.921875 172.007812 311.65625 171.882812 311.355469 C 171.757812 311.054688 171.695312 310.742188 171.695312 310.417969 L 171.695312 280.921875 C 171.695312 280.59375 171.757812 280.28125 171.882812 279.980469 C 172.007812 279.679688 172.183594 279.414062 172.414062 279.183594 C 172.644531 278.953125 172.910156 278.777344 173.210938 278.652344 C 173.511719 278.527344 173.824219 278.464844 174.148438 278.464844 L 203.644531 278.464844 C 204.453125 278.464844 205.25 278.386719 206.042969 278.230469 C 206.835938 278.074219 207.601562 277.839844 208.347656 277.53125 C 209.09375 277.222656 209.800781 276.84375 210.472656 276.394531 C 211.144531 275.949219 211.765625 275.4375 212.335938 274.867188 C 212.90625 274.296875 213.414062 273.675781 213.863281 273.003906 C 214.3125 272.335938 214.691406 271.625 215 270.882812 C 215.308594 270.136719 215.539062 269.367188 215.699219 268.574219 C 215.855469 267.785156 215.933594 266.984375 215.933594 266.179688 L 215.933594 236.683594 C 215.933594 236.355469 215.996094 236.042969 216.121094 235.742188 C 216.246094 235.441406 216.421875 235.175781 216.652344 234.945312 C 216.882812 234.714844 217.148438 234.535156 217.449219 234.410156 C 217.75 234.285156 218.0625 234.222656 218.386719 234.222656 L 247.882812 234.222656 C 248.210938 234.222656 248.523438 234.285156 248.824219 234.410156 C 249.125 234.535156 249.390625 234.714844 249.621094 234.945312 C 249.851562 235.175781 250.027344 235.441406 250.152344 235.742188 C 250.277344 236.042969 250.339844 236.355469 250.339844 236.683594 L 250.339844 266.179688 C 250.339844 266.984375 250.417969 267.785156 250.574219 268.574219 C 250.730469 269.367188 250.964844 270.136719 251.273438 270.882812 C 251.582031 271.625 251.960938 272.335938 252.410156 273.003906 C 252.855469 273.675781 253.367188 274.296875 253.9375 274.867188 C 254.507812 275.4375 255.128906 275.949219 255.800781 276.394531 C 256.46875 276.84375 257.179688 277.222656 257.921875 277.53125 C 258.667969 277.839844 259.4375 278.074219 260.230469 278.230469 C 261.019531 278.386719 261.820312 278.464844 262.625 278.464844 L 292.121094 278.464844 C 292.449219 278.464844 292.761719 278.527344 293.0625 278.652344 C 293.363281 278.777344 293.628906 278.953125 293.859375 279.183594 C 294.089844 279.414062 294.265625 279.679688 294.390625 279.980469 C 294.515625 280.28125 294.578125 280.59375 294.578125 280.921875 Z M 294.578125 310.417969 " fill-opacity="1" fill-rule="nonzero"/><path fill="#fbb739" d="M 531.742188 325.652344 C 530.40625 325.636719 529.070312 325.683594 527.734375 325.800781 C 526.398438 325.914062 525.074219 326.09375 523.757812 326.339844 C 522.441406 326.585938 521.140625 326.894531 519.855469 327.265625 C 518.566406 327.636719 517.304688 328.070312 516.058594 328.566406 C 514.816406 329.0625 513.597656 329.617188 512.410156 330.234375 C 511.21875 330.847656 510.0625 331.519531 508.9375 332.25 C 507.816406 332.976562 506.730469 333.757812 505.683594 334.59375 C 504.636719 335.425781 503.632812 336.308594 502.671875 337.242188 C 501.710938 338.175781 500.796875 339.152344 499.929688 340.175781 C 499.066406 341.195312 498.253906 342.257812 497.492188 343.359375 C 496.730469 344.460938 496.023438 345.597656 495.375 346.769531 C 494.726562 347.9375 494.132812 349.136719 493.601562 350.367188 C 493.066406 351.59375 492.597656 352.847656 492.1875 354.121094 C 491.777344 355.394531 491.429688 356.6875 491.144531 357.996094 C 490.859375 359.304688 490.640625 360.625 490.488281 361.953125 C 490.332031 363.285156 490.242188 364.621094 490.21875 365.957031 C 490.195312 367.296875 490.234375 368.632812 490.34375 369.96875 C 490.449219 371.304688 490.621094 372.628906 490.855469 373.949219 C 491.09375 375.265625 491.394531 376.570312 491.757812 377.859375 C 492.121094 379.144531 492.546875 380.414062 493.035156 381.660156 C 493.523438 382.90625 494.070312 384.128906 494.679688 385.320312 C 495.285156 386.515625 495.949219 387.675781 496.671875 388.804688 C 497.394531 389.933594 498.167969 391.023438 498.996094 392.074219 C 499.824219 393.128906 500.699219 394.136719 501.625 395.105469 C 502.554688 396.070312 503.523438 396.988281 504.542969 397.863281 C 505.558594 398.734375 506.613281 399.554688 507.710938 400.320312 C 508.808594 401.089844 509.941406 401.800781 511.105469 402.460938 C 512.273438 403.117188 513.46875 403.714844 514.695312 404.257812 C 515.917969 404.796875 517.167969 405.277344 518.4375 405.695312 C 519.710938 406.113281 521 406.46875 522.308594 406.761719 C 523.613281 407.050781 524.933594 407.28125 526.261719 407.441406 C 527.589844 407.605469 528.925781 407.703125 530.261719 407.738281 C 584.234375 406.742188 586.296875 327.960938 531.742188 325.652344 Z M 530.746094 383.167969 C 530.210938 383.15625 529.679688 383.117188 529.148438 383.050781 C 528.617188 382.988281 528.089844 382.898438 527.566406 382.78125 C 527.042969 382.667969 526.527344 382.527344 526.019531 382.359375 C 525.511719 382.195312 525.011719 382.003906 524.519531 381.789062 C 524.03125 381.574219 523.550781 381.335938 523.082031 381.078125 C 522.617188 380.816406 522.164062 380.53125 521.722656 380.226562 C 521.285156 379.921875 520.859375 379.59375 520.453125 379.25 C 520.042969 378.902344 519.652344 378.535156 519.28125 378.152344 C 518.910156 377.765625 518.558594 377.363281 518.222656 376.945312 C 517.890625 376.527344 517.578125 376.089844 517.289062 375.640625 C 516.996094 375.191406 516.730469 374.730469 516.484375 374.253906 C 516.238281 373.777344 516.015625 373.292969 515.820312 372.792969 C 515.621094 372.296875 515.445312 371.792969 515.296875 371.277344 C 515.148438 370.761719 515.027344 370.242188 514.925781 369.714844 C 514.828125 369.191406 514.757812 368.660156 514.710938 368.128906 C 514.664062 367.59375 514.644531 367.058594 514.648438 366.523438 C 514.65625 365.988281 514.6875 365.457031 514.742188 364.921875 C 514.800781 364.390625 514.882812 363.863281 514.992188 363.339844 C 515.101562 362.816406 515.238281 362.296875 515.398438 361.785156 C 515.554688 361.273438 515.738281 360.773438 515.949219 360.28125 C 516.15625 359.789062 516.390625 359.304688 516.644531 358.835938 C 516.898438 358.363281 517.175781 357.90625 517.476562 357.464844 C 517.777344 357.019531 518.097656 356.59375 518.441406 356.179688 C 518.78125 355.769531 519.144531 355.375 519.523438 354.996094 C 519.902344 354.621094 520.300781 354.261719 520.714844 353.925781 C 521.128906 353.585938 521.5625 353.269531 522.007812 352.972656 C 522.453125 352.675781 522.910156 352.402344 523.382812 352.152344 C 523.855469 351.898438 524.339844 351.671875 524.835938 351.46875 C 525.332031 351.261719 525.835938 351.082031 526.347656 350.929688 C 526.859375 350.773438 527.378906 350.644531 527.902344 350.539062 C 528.425781 350.433594 528.957031 350.355469 529.488281 350.300781 C 530.019531 350.25 530.554688 350.222656 531.089844 350.222656 C 531.625 350.234375 532.160156 350.273438 532.691406 350.335938 C 533.222656 350.402344 533.746094 350.492188 534.269531 350.605469 C 534.792969 350.722656 535.308594 350.863281 535.816406 351.03125 C 536.324219 351.195312 536.824219 351.386719 537.316406 351.601562 C 537.804688 351.816406 538.285156 352.054688 538.75 352.316406 C 539.21875 352.578125 539.671875 352.859375 540.109375 353.164062 C 540.550781 353.472656 540.972656 353.796875 541.378906 354.144531 C 541.789062 354.492188 542.175781 354.855469 542.550781 355.242188 C 542.921875 355.625 543.273438 356.027344 543.605469 356.445312 C 543.9375 356.867188 544.25 357.300781 544.539062 357.75 C 544.832031 358.199219 545.097656 358.660156 545.34375 359.136719 C 545.589844 359.613281 545.8125 360.097656 546.007812 360.597656 C 546.207031 361.09375 546.378906 361.597656 546.527344 362.113281 C 546.679688 362.625 546.800781 363.144531 546.898438 363.671875 C 546.996094 364.199219 547.070312 364.726562 547.117188 365.261719 C 547.164062 365.792969 547.183594 366.328125 547.175781 366.863281 C 547.171875 367.398438 547.140625 367.929688 547.082031 368.464844 C 547.023438 368.996094 546.941406 369.523438 546.832031 370.046875 C 546.722656 370.570312 546.589844 371.089844 546.429688 371.597656 C 546.269531 372.109375 546.085938 372.613281 545.878906 373.105469 C 545.671875 373.597656 545.4375 374.078125 545.183594 374.550781 C 544.929688 375.019531 544.652344 375.476562 544.351562 375.917969 C 544.050781 376.363281 543.730469 376.789062 543.390625 377.203125 C 543.046875 377.613281 542.6875 378.007812 542.308594 378.386719 C 541.929688 378.761719 541.53125 379.121094 541.117188 379.457031 C 540.703125 379.796875 540.273438 380.113281 539.824219 380.410156 C 539.378906 380.707031 538.921875 380.980469 538.449219 381.230469 C 537.976562 381.484375 537.492188 381.710938 537 381.917969 C 536.503906 382.121094 536 382.300781 535.488281 382.457031 C 534.976562 382.613281 534.460938 382.742188 533.933594 382.847656 C 533.410156 382.953125 532.882812 383.03125 532.347656 383.085938 C 531.816406 383.136719 531.28125 383.164062 530.746094 383.167969 Z M 530.746094 383.167969 " fill-opacity="1" fill-rule="nonzero"/><path fill="#fbb739" d="M 460.847656 254.496094 C 406.460938 254.960938 405.519531 335.574219 460.003906 336.34375 C 461.332031 336.335938 462.65625 336.265625 463.976562 336.132812 C 465.296875 335.996094 466.609375 335.796875 467.910156 335.535156 C 469.214844 335.273438 470.5 334.949219 471.769531 334.5625 C 473.039062 334.175781 474.289062 333.726562 475.515625 333.21875 C 476.742188 332.707031 477.941406 332.140625 479.109375 331.515625 C 480.28125 330.890625 481.421875 330.207031 482.527344 329.472656 C 483.628906 328.734375 484.695312 327.945312 485.726562 327.105469 C 486.753906 326.265625 487.738281 325.378906 488.679688 324.441406 C 489.621094 323.503906 490.515625 322.527344 491.363281 321.503906 C 492.210938 320.480469 493.003906 319.417969 493.746094 318.316406 C 494.492188 317.214844 495.179688 316.082031 495.8125 314.914062 C 496.445312 313.746094 497.019531 312.550781 497.535156 311.328125 C 498.050781 310.105469 498.507812 308.859375 498.902344 307.589844 C 499.296875 306.324219 499.628906 305.039062 499.898438 303.738281 C 500.167969 302.4375 500.375 301.128906 500.519531 299.808594 C 500.660156 298.488281 500.738281 297.164062 500.753906 295.835938 C 500.765625 294.507812 500.714844 293.183594 500.601562 291.859375 C 500.484375 290.535156 500.304688 289.222656 500.0625 287.917969 C 499.820312 286.613281 499.515625 285.320312 499.144531 284.046875 C 498.777344 282.769531 498.347656 281.515625 497.855469 280.28125 C 497.363281 279.046875 496.8125 277.839844 496.207031 276.660156 C 495.597656 275.480469 494.933594 274.332031 494.210938 273.214844 C 493.492188 272.101562 492.71875 271.023438 491.894531 269.980469 C 491.070312 268.941406 490.195312 267.941406 489.273438 266.988281 C 488.351562 266.03125 487.386719 265.125 486.375 264.261719 C 485.363281 263.402344 484.3125 262.589844 483.222656 261.832031 C 482.132812 261.070312 481.011719 260.367188 479.851562 259.71875 C 478.695312 259.066406 477.507812 258.476562 476.292969 257.941406 C 475.074219 257.40625 473.835938 256.933594 472.574219 256.519531 C 471.3125 256.105469 470.035156 255.753906 468.738281 255.464844 C 467.441406 255.175781 466.132812 254.953125 464.816406 254.789062 C 463.5 254.628906 462.175781 254.53125 460.847656 254.496094 Z M 459.636719 311.761719 C 458.578125 311.710938 457.535156 311.558594 456.507812 311.308594 C 455.476562 311.054688 454.484375 310.707031 453.523438 310.261719 C 452.5625 309.816406 451.652344 309.28125 450.796875 308.660156 C 449.9375 308.039062 449.148438 307.339844 448.425781 306.566406 C 447.707031 305.789062 447.066406 304.953125 446.507812 304.050781 C 445.949219 303.152344 445.480469 302.207031 445.105469 301.21875 C 444.730469 300.226562 444.457031 299.210938 444.277344 298.164062 C 444.101562 297.121094 444.023438 296.070312 444.050781 295.011719 C 444.078125 293.953125 444.207031 292.90625 444.4375 291.871094 C 444.667969 290.839844 444.996094 289.835938 445.417969 288.867188 C 445.84375 287.894531 446.359375 286.976562 446.960938 286.105469 C 447.566406 285.234375 448.246094 284.433594 449.007812 283.695312 C 449.765625 282.957031 450.589844 282.296875 451.476562 281.71875 C 452.367188 281.144531 453.300781 280.65625 454.28125 280.257812 C 455.265625 279.863281 456.277344 279.566406 457.316406 279.367188 C 458.355469 279.167969 459.40625 279.070312 460.464844 279.074219 C 461.007812 279.074219 461.550781 279.105469 462.089844 279.160156 C 462.628906 279.214844 463.164062 279.300781 463.695312 279.410156 C 464.226562 279.519531 464.753906 279.652344 465.273438 279.816406 C 465.789062 279.976562 466.296875 280.164062 466.796875 280.375 C 467.296875 280.589844 467.785156 280.824219 468.261719 281.085938 C 468.738281 281.347656 469.199219 281.632812 469.648438 281.9375 C 470.09375 282.246094 470.527344 282.574219 470.941406 282.925781 C 471.355469 283.273438 471.753906 283.644531 472.132812 284.03125 C 472.507812 284.421875 472.867188 284.828125 473.203125 285.253906 C 473.542969 285.679688 473.859375 286.121094 474.152344 286.578125 C 474.445312 287.035156 474.714844 287.503906 474.964844 287.988281 C 475.210938 288.472656 475.433594 288.964844 475.628906 289.472656 C 475.828125 289.976562 476 290.492188 476.144531 291.011719 C 476.292969 291.535156 476.414062 292.066406 476.507812 292.601562 C 476.601562 293.132812 476.667969 293.671875 476.707031 294.214844 C 476.746094 294.753906 476.761719 295.296875 476.746094 295.839844 C 476.734375 296.382812 476.691406 296.921875 476.625 297.460938 C 476.558594 298 476.464844 298.535156 476.34375 299.0625 C 476.222656 299.59375 476.074219 300.113281 475.902344 300.628906 C 475.730469 301.144531 475.53125 301.648438 475.308594 302.144531 C 475.085938 302.640625 474.839844 303.121094 474.566406 303.59375 C 474.296875 304.0625 474.003906 304.519531 473.6875 304.960938 C 473.371094 305.398438 473.03125 305.824219 472.671875 306.230469 C 472.3125 306.640625 471.9375 307.027344 471.539062 307.398438 C 471.140625 307.765625 470.726562 308.117188 470.292969 308.445312 C 469.863281 308.773438 469.414062 309.078125 468.953125 309.363281 C 468.488281 309.648438 468.011719 309.90625 467.523438 310.144531 C 467.035156 310.382812 466.535156 310.59375 466.027344 310.78125 C 465.515625 310.964844 465 311.128906 464.472656 311.261719 C 463.949219 311.398438 463.417969 311.507812 462.878906 311.589844 C 462.34375 311.671875 461.804688 311.726562 461.261719 311.753906 C 460.71875 311.785156 460.179688 311.785156 459.636719 311.761719 Z M 459.636719 311.761719 " fill-opacity="1" fill-rule="nonzero"/><path fill="#fbb739" d="M 602.53125 254.496094 C 548.234375 255.878906 547.046875 335.066406 601.957031 336.34375 C 655.898438 335.453125 655.929688 256.257812 602.53125 254.496094 Z M 601.566406 311.761719 C 601.035156 311.746094 600.503906 311.707031 599.972656 311.640625 C 599.445312 311.574219 598.921875 311.484375 598.402344 311.367188 C 597.882812 311.25 597.371094 311.109375 596.863281 310.941406 C 596.359375 310.773438 595.863281 310.582031 595.375 310.367188 C 594.886719 310.152344 594.410156 309.914062 593.949219 309.652344 C 593.484375 309.390625 593.035156 309.105469 592.597656 308.800781 C 592.164062 308.496094 591.742188 308.167969 591.339844 307.820312 C 590.933594 307.472656 590.546875 307.109375 590.179688 306.722656 C 589.8125 306.339844 589.460938 305.9375 589.132812 305.519531 C 588.804688 305.097656 588.496094 304.664062 588.210938 304.214844 C 587.921875 303.765625 587.660156 303.304688 587.417969 302.832031 C 587.175781 302.355469 586.957031 301.871094 586.765625 301.375 C 586.570312 300.878906 586.402344 300.375 586.257812 299.859375 C 586.109375 299.347656 585.992188 298.828125 585.898438 298.304688 C 585.804688 297.78125 585.734375 297.253906 585.691406 296.722656 C 585.652344 296.191406 585.632812 295.660156 585.644531 295.128906 C 585.652344 294.59375 585.6875 294.0625 585.75 293.535156 C 585.8125 293.007812 585.898438 292.480469 586.011719 291.960938 C 586.125 291.441406 586.261719 290.925781 586.425781 290.417969 C 586.585938 289.910156 586.773438 289.414062 586.984375 288.925781 C 587.199219 288.4375 587.433594 287.957031 587.691406 287.492188 C 587.949219 287.027344 588.230469 286.574219 588.53125 286.136719 C 588.835938 285.699219 589.15625 285.273438 589.5 284.867188 C 589.84375 284.460938 590.207031 284.074219 590.589844 283.699219 C 590.972656 283.328125 591.371094 282.976562 591.785156 282.644531 C 592.203125 282.3125 592.632812 282 593.082031 281.710938 C 593.527344 281.421875 593.988281 281.152344 594.460938 280.90625 C 594.933594 280.664062 595.417969 280.441406 595.910156 280.242188 C 596.40625 280.046875 596.910156 279.871094 597.421875 279.722656 C 597.933594 279.574219 598.449219 279.449219 598.972656 279.351562 C 599.496094 279.253906 600.023438 279.179688 600.554688 279.136719 C 601.085938 279.089844 601.617188 279.066406 602.148438 279.074219 C 602.679688 279.085938 603.210938 279.125 603.742188 279.191406 C 604.269531 279.257812 604.792969 279.347656 605.3125 279.464844 C 605.832031 279.582031 606.34375 279.722656 606.851562 279.890625 C 607.355469 280.058594 607.851562 280.25 608.339844 280.464844 C 608.828125 280.679688 609.304688 280.917969 609.765625 281.179688 C 610.230469 281.441406 610.679688 281.726562 611.117188 282.03125 C 611.550781 282.339844 611.972656 282.664062 612.375 283.011719 C 612.78125 283.359375 613.167969 283.726562 613.535156 284.109375 C 613.902344 284.496094 614.253906 284.898438 614.582031 285.316406 C 614.910156 285.734375 615.21875 286.167969 615.503906 286.617188 C 615.792969 287.066406 616.054688 287.527344 616.296875 288.003906 C 616.539062 288.476562 616.757812 288.964844 616.949219 289.460938 C 617.144531 289.953125 617.3125 290.460938 617.457031 290.972656 C 617.605469 291.484375 617.722656 292.003906 617.816406 292.527344 C 617.910156 293.050781 617.980469 293.578125 618.023438 294.109375 C 618.0625 294.640625 618.082031 295.171875 618.070312 295.707031 C 618.0625 296.238281 618.027344 296.769531 617.964844 297.296875 C 617.902344 297.828125 617.816406 298.351562 617.703125 298.871094 C 617.589844 299.394531 617.453125 299.90625 617.289062 300.414062 C 617.128906 300.921875 616.941406 301.417969 616.730469 301.910156 C 616.515625 302.398438 616.28125 302.875 616.023438 303.339844 C 615.765625 303.804688 615.484375 304.257812 615.183594 304.695312 C 614.878906 305.136719 614.558594 305.558594 614.214844 305.964844 C 613.871094 306.371094 613.507812 306.761719 613.125 307.132812 C 612.742188 307.503906 612.34375 307.855469 611.929688 308.1875 C 611.511719 308.519531 611.082031 308.832031 610.632812 309.121094 C 610.1875 309.410156 609.726562 309.679688 609.253906 309.925781 C 608.78125 310.171875 608.296875 310.390625 607.804688 310.589844 C 607.308594 310.789062 606.804688 310.960938 606.292969 311.109375 C 605.78125 311.257812 605.265625 311.382812 604.742188 311.480469 C 604.21875 311.578125 603.691406 311.652344 603.160156 311.699219 C 602.628906 311.746094 602.097656 311.765625 601.566406 311.761719 Z M 601.566406 311.761719 " fill-opacity="1" fill-rule="nonzero"/><path fill="#fbb739" d="M 530.605469 265.925781 C 531.941406 265.921875 533.28125 265.855469 534.613281 265.71875 C 535.945312 265.585938 537.269531 265.386719 538.582031 265.125 C 539.894531 264.863281 541.191406 264.539062 542.472656 264.148438 C 543.753906 263.761719 545.015625 263.308594 546.253906 262.796875 C 547.492188 262.289062 548.703125 261.71875 549.882812 261.085938 C 551.066406 260.457031 552.214844 259.773438 553.332031 259.03125 C 554.445312 258.292969 555.523438 257.5 556.5625 256.652344 C 557.601562 255.808594 558.597656 254.914062 559.546875 253.96875 C 560.5 253.027344 561.402344 252.042969 562.257812 251.011719 C 563.113281 249.980469 563.917969 248.910156 564.667969 247.800781 C 565.421875 246.695312 566.117188 245.550781 566.757812 244.375 C 567.398438 243.199219 567.980469 241.992188 568.503906 240.761719 C 569.027344 239.527344 569.488281 238.273438 569.890625 236.996094 C 570.289062 235.714844 570.628906 234.421875 570.902344 233.113281 C 571.179688 231.800781 571.390625 230.480469 571.535156 229.148438 C 571.683594 227.816406 571.765625 226.480469 571.78125 225.140625 C 571.796875 223.804688 571.75 222.464844 571.636719 221.132812 C 571.523438 219.796875 571.34375 218.472656 571.101562 217.152344 C 570.859375 215.835938 570.554688 214.535156 570.183594 213.246094 C 569.816406 211.960938 569.382812 210.691406 568.890625 209.445312 C 568.398438 208.203125 567.847656 206.984375 567.238281 205.789062 C 566.625 204.597656 565.957031 203.441406 565.234375 202.3125 C 564.511719 201.1875 563.734375 200.097656 562.902344 199.046875 C 562.074219 197.992188 561.195312 196.984375 560.265625 196.019531 C 559.339844 195.054688 558.367188 194.136719 557.347656 193.261719 C 556.332031 192.390625 555.273438 191.574219 554.179688 190.804688 C 553.082031 190.035156 551.949219 189.324219 550.78125 188.664062 C 549.617188 188.007812 548.421875 187.40625 547.195312 186.863281 C 545.972656 186.320312 544.722656 185.839844 543.449219 185.421875 C 542.179688 185 540.890625 184.640625 539.582031 184.347656 C 538.277344 184.050781 536.960938 183.820312 535.628906 183.652344 C 534.300781 183.488281 532.96875 183.386719 531.628906 183.347656 C 530.289062 183.351562 528.953125 183.421875 527.621094 183.554688 C 526.289062 183.6875 524.964844 183.886719 523.652344 184.148438 C 522.339844 184.410156 521.039062 184.738281 519.757812 185.125 C 518.476562 185.515625 517.21875 185.964844 515.980469 186.476562 C 514.742188 186.988281 513.53125 187.558594 512.347656 188.1875 C 511.167969 188.816406 510.019531 189.5 508.902344 190.242188 C 507.785156 190.984375 506.710938 191.777344 505.671875 192.621094 C 504.632812 193.46875 503.636719 194.363281 502.683594 195.304688 C 501.734375 196.246094 500.828125 197.234375 499.972656 198.265625 C 499.117188 199.292969 498.316406 200.363281 497.5625 201.472656 C 496.8125 202.582031 496.117188 203.722656 495.476562 204.898438 C 494.835938 206.078125 494.253906 207.28125 493.730469 208.515625 C 493.207031 209.746094 492.746094 211.003906 492.34375 212.28125 C 491.941406 213.558594 491.605469 214.851562 491.328125 216.164062 C 491.054688 217.472656 490.84375 218.796875 490.699219 220.125 C 490.550781 221.457031 490.46875 222.792969 490.453125 224.132812 C 490.4375 225.472656 490.484375 226.808594 490.597656 228.144531 C 490.710938 229.476562 490.890625 230.804688 491.132812 232.121094 C 491.375 233.4375 491.679688 234.742188 492.050781 236.027344 C 492.417969 237.316406 492.847656 238.582031 493.339844 239.828125 C 493.832031 241.074219 494.386719 242.292969 494.996094 243.484375 C 495.609375 244.675781 496.273438 245.835938 497 246.960938 C 497.722656 248.089844 498.5 249.179688 499.328125 250.230469 C 500.160156 251.28125 501.039062 252.289062 501.964844 253.253906 C 502.894531 254.222656 503.867188 255.140625 504.882812 256.011719 C 505.902344 256.882812 506.957031 257.703125 508.054688 258.472656 C 509.152344 259.238281 510.285156 259.953125 511.449219 260.609375 C 512.617188 261.269531 513.8125 261.871094 515.039062 262.410156 C 516.261719 262.953125 517.511719 263.433594 518.78125 263.855469 C 520.054688 264.273438 521.34375 264.632812 522.648438 264.929688 C 523.957031 265.222656 525.273438 265.453125 526.601562 265.621094 C 527.929688 265.789062 529.265625 265.890625 530.605469 265.925781 Z M 519.625 212.84375 C 520.207031 212.289062 520.824219 211.777344 521.480469 211.3125 C 522.136719 210.847656 522.820312 210.433594 523.539062 210.066406 C 524.253906 209.703125 524.992188 209.390625 525.753906 209.132812 C 526.515625 208.875 527.292969 208.671875 528.085938 208.527344 C 528.875 208.382812 529.671875 208.292969 530.476562 208.265625 C 531.28125 208.238281 532.082031 208.265625 532.882812 208.351562 C 533.679688 208.441406 534.46875 208.585938 535.246094 208.789062 C 536.027344 208.992188 536.785156 209.25 537.527344 209.5625 C 538.265625 209.875 538.980469 210.238281 539.667969 210.65625 C 540.355469 211.074219 541.011719 211.535156 541.632812 212.046875 C 542.25 212.5625 542.832031 213.113281 543.371094 213.710938 C 543.910156 214.308594 544.402344 214.941406 544.851562 215.609375 C 545.300781 216.277344 545.695312 216.972656 546.042969 217.699219 C 546.386719 218.425781 546.679688 219.171875 546.917969 219.941406 C 547.15625 220.707031 547.335938 221.492188 547.460938 222.285156 C 547.582031 223.078125 547.648438 223.878906 547.65625 224.683594 C 547.613281 225.765625 547.472656 226.832031 547.230469 227.886719 C 546.988281 228.941406 546.648438 229.964844 546.214844 230.957031 C 545.78125 231.945312 545.261719 232.890625 544.652344 233.785156 C 544.042969 234.675781 543.355469 235.507812 542.589844 236.273438 C 541.824219 237.039062 540.996094 237.726562 540.101562 238.335938 C 539.210938 238.945312 538.265625 239.46875 537.277344 239.902344 C 536.285156 240.339844 535.261719 240.675781 534.207031 240.921875 C 533.15625 241.164062 532.085938 241.308594 531.003906 241.351562 C 530.191406 241.332031 529.386719 241.253906 528.582031 241.117188 C 527.78125 240.980469 526.996094 240.785156 526.222656 240.535156 C 525.449219 240.28125 524.695312 239.976562 523.96875 239.613281 C 523.238281 239.253906 522.542969 238.839844 521.875 238.375 C 521.207031 237.910156 520.574219 237.402344 519.980469 236.84375 C 519.386719 236.289062 518.839844 235.691406 518.332031 235.054688 C 517.824219 234.417969 517.367188 233.75 516.960938 233.046875 C 516.550781 232.34375 516.195312 231.613281 515.894531 230.859375 C 515.59375 230.101562 515.347656 229.328125 515.160156 228.539062 C 514.972656 227.746094 514.84375 226.945312 514.769531 226.136719 C 514.699219 225.328125 514.6875 224.515625 514.734375 223.703125 C 514.78125 222.890625 514.886719 222.085938 515.050781 221.292969 C 515.21875 220.496094 515.4375 219.714844 515.71875 218.949219 C 515.996094 218.1875 516.332031 217.445312 516.71875 216.730469 C 517.105469 216.015625 517.542969 215.332031 518.027344 214.683594 C 518.515625 214.03125 519.046875 213.417969 519.625 212.84375 Z M 519.625 212.84375 " fill-opacity="1" fill-rule="nonzero"/><path fill="#fbb739" d="M 721.332031 513.886719 C 740.3125 443.058594 730.863281 380.75 710.683594 294.914062 C 690.59375 208.335938 633.789062 88.765625 521.339844 111.53125 C 467.246094 119.625 402.894531 148.335938 351.222656 133.589844 C 321.691406 126.140625 291.933594 119.953125 262.609375 113.59375 C 95.15625 76.984375 49.882812 302.734375 43.109375 438.453125 C 38.917969 529.304688 85.214844 604.574219 182.898438 551.855469 C 212.53125 535.199219 239.617188 515.109375 264.15625 491.585938 C 268.101562 487.6875 272.277344 484.042969 276.671875 480.660156 C 281.070312 477.273438 285.660156 474.171875 290.441406 471.355469 C 295.222656 468.539062 300.15625 466.027344 305.25 463.820312 C 310.339844 461.613281 315.550781 459.730469 320.875 458.167969 C 385.246094 441.980469 460.8125 443.855469 513.527344 494.195312 C 562.925781 544.007812 682.066406 623.199219 721.332031 513.886719 Z M 628.667969 540.773438 C 554.394531 518.441406 515.597656 439.355469 440.359375 429.679688 C 372.050781 418.933594 301.007812 422.828125 247.476562 473.539062 C 224.472656 495.628906 199.085938 514.511719 171.3125 530.183594 C 0.292969 617.839844 84.191406 269.445312 118.769531 215.320312 C 176.953125 102.871094 241.785156 133.691406 345.167969 157.414062 C 379.777344 167.769531 426.066406 160.019531 465.5625 149.007812 C 528.851562 131.773438 590.128906 118.089844 634.402344 180.65625 C 690.40625 240.234375 768.277344 582.621094 628.667969 540.773438 Z M 628.667969 540.773438 " fill-opacity="1" fill-rule="nonzero"/></svg>