<svg xmlns="http://www.w3.org/2000/svg" xmlns:xlink="http://www.w3.org/1999/xlink" width="1024" zoomAndPan="magnify" viewBox="0 0 768 767.999994" height="1024" preserveAspectRatio="xMidYMid meet" version="1.0"><path fill="#8899a6" d="M 731.214844 176.765625 L 673.679688 234.324219 C 673.679688 234.324219 635.300781 253.503906 596.941406 215.125 C 558.5625 176.765625 577.742188 138.386719 577.742188 138.386719 L 635.300781 80.828125 C 654.5 61.648438 631.4375 44.066406 614.128906 44.066406 C 529.121094 44.066406 460.234375 112.953125 460.234375 197.9375 C 460.234375 209.878906 461.746094 221.460938 464.304688 232.625 L 334.226562 362.703125 L 449.320312 477.796875 L 579.398438 347.742188 C 590.582031 350.300781 602.144531 351.8125 614.105469 351.8125 C 699.089844 351.8125 767.980469 282.921875 767.980469 197.9375 C 768 180.523438 750.394531 157.585938 731.214844 176.765625 Z M 331.960938 366.457031 L 76.191406 622.207031 C 44.820312 653.597656 44.820312 704.484375 76.191406 735.875 C 107.605469 767.246094 158.46875 767.246094 189.859375 735.875 L 445.585938 480.125 Z M 133.519531 712.140625 C 116.332031 712.140625 102.421875 698.207031 102.421875 681.042969 C 102.421875 663.878906 116.355469 649.925781 133.519531 649.925781 C 150.703125 649.925781 164.617188 663.859375 164.617188 681.042969 C 164.617188 698.207031 150.703125 712.140625 133.519531 712.140625 Z M 133.519531 712.140625 " fill-opacity="1" fill-rule="nonzero"/><path fill="#fbb739" d="M 659.515625 742.378906 C 683.980469 766.847656 722.925781 768 745.988281 744.917969 C 769.070312 721.835938 767.917969 682.910156 743.449219 658.445312 L 255.265625 170.261719 C 230.777344 145.773438 191.875 144.640625 168.792969 167.722656 C 145.710938 190.804688 146.863281 229.730469 171.332031 254.195312 Z M 659.515625 742.378906 " fill-opacity="1" fill-rule="nonzero"/><path fill="#66757f" d="M 462.5625 62.804688 C 462.5625 62.804688 336.660156 -0.148438 231.742188 104.769531 L 84.859375 251.65625 C 84.859375 251.65625 63.875 230.671875 42.890625 251.65625 L 21.90625 272.640625 C 21.90625 272.640625 0.921875 293.625 21.90625 314.605469 L 105.839844 398.542969 C 105.839844 398.542969 126.824219 419.523438 147.808594 398.542969 L 168.792969 377.558594 C 168.792969 377.558594 189.777344 356.574219 168.792969 335.589844 L 167.15625 333.953125 C 183.3125 318.363281 207.507812 302.480469 231.742188 314.605469 L 315.675781 230.671875 C 315.675781 230.671875 294.695312 167.722656 336.660156 125.753906 C 378.628906 83.789062 399.613281 83.789062 441.578125 83.789062 C 483.546875 83.789062 462.5625 62.804688 462.5625 62.804688 Z M 462.5625 62.804688 " fill-opacity="1" fill-rule="nonzero"/></svg>