<svg xmlns="http://www.w3.org/2000/svg" xmlns:xlink="http://www.w3.org/1999/xlink" width="1024" zoomAndPan="magnify" viewBox="0 0 768 767.999994" height="1024" preserveAspectRatio="xMidYMid meet" version="1.0"><path fill="#fbb739" d="M 767.824219 333.414062 C 767.628906 294.894531 761.792969 256.164062 749.089844 219.75 C 736.753906 184.382812 718.824219 148.980469 689.734375 124.457031 C 661.308594 100.496094 625.472656 88.183594 588.3125 88.929688 C 580.078125 89.09375 571.835938 89.914062 563.613281 90.910156 C 561.5625 90.542969 559.417969 90.523438 557.265625 90.898438 C 551.285156 91.941406 545.257812 92.625 539.210938 93.132812 C 532.972656 93.5625 526.695312 93.855469 520.414062 94.203125 C 487.671875 83.148438 452.136719 76.882812 418.871094 87.410156 C 382.65625 98.875 356.304688 128.882812 342.253906 163.375 C 331.207031 190.503906 329.335938 220.359375 318.527344 247.570312 C 317.550781 250.019531 316.480469 252.429688 315.339844 254.808594 C 315.304688 254.800781 313.835938 257.589844 313.394531 258.339844 C 312.410156 260.023438 311.34375 261.65625 310.246094 263.269531 C 308.402344 265.972656 306.34375 268.523438 304.179688 270.972656 C 303.664062 271.484375 303.140625 271.988281 302.617188 272.488281 C 301.074219 273.964844 299.445312 275.351562 297.789062 276.699219 C 296.320312 277.890625 294.792969 279.007812 293.25 280.097656 C 292.875 280.363281 292.492188 280.625 292.109375 280.878906 C 291.816406 281.066406 291.523438 281.25 291.316406 281.371094 C 287.800781 283.460938 284.089844 285.277344 280.433594 287.105469 C 273.3125 290.660156 266.027344 293.878906 258.667969 296.902344 C 251.214844 299.964844 243.65625 302.773438 236.058594 305.457031 C 235.40625 305.6875 234.757812 305.914062 234.105469 306.140625 C 234.050781 306.15625 234 306.175781 233.941406 306.195312 C 232.089844 306.824219 230.238281 307.441406 228.386719 308.054688 C 224.359375 309.390625 220.320312 310.695312 216.28125 311.980469 C 200.691406 316.953125 185.019531 321.660156 169.46875 326.742188 C 138.050781 337.011719 106.507812 348.800781 78.898438 367.300781 C 48.125 387.914062 21.285156 416.828125 10.492188 452.910156 C 0.00390625 487.96875 9.285156 524.710938 26.050781 556.089844 C 42.402344 586.695312 67.261719 613.179688 94.21875 634.734375 C 125.601562 659.832031 161.675781 678.050781 200.882812 687.0625 C 239.535156 695.953125 280.691406 693.621094 318.660156 682.65625 C 338.839844 676.828125 358.324219 668.941406 376.90625 659.167969 C 395.730469 649.261719 413.332031 637.269531 430.519531 624.78125 C 444.996094 614.265625 459.117188 603.265625 473.621094 592.789062 C 473.730469 592.710938 473.839844 592.632812 473.949219 592.554688 C 474.378906 592.25 475.222656 591.652344 475.65625 591.351562 C 477.355469 590.164062 479.066406 588.988281 480.777344 587.824219 C 484.464844 585.316406 488.195312 582.878906 491.960938 580.496094 C 499.144531 575.960938 506.527344 571.738281 514.105469 567.898438 C 515.925781 566.972656 517.761719 566.089844 519.609375 565.21875 C 520.390625 564.847656 522.878906 563.753906 523.796875 563.339844 C 527.230469 561.9375 530.703125 560.636719 534.207031 559.421875 C 541.820312 556.785156 549.625 554.71875 557.519531 553.125 C 557.554688 553.148438 561.773438 552.417969 562.875 552.265625 C 565.152344 551.945312 567.4375 551.6875 569.726562 551.449219 C 574.648438 550.9375 579.585938 550.714844 584.527344 550.480469 C 592.453125 550.113281 600.359375 549.394531 608.222656 548.320312 C 639.121094 544.097656 669.285156 534.136719 694.710938 515.726562 C 720.136719 497.320312 738.574219 470.722656 749.914062 441.691406 C 763.214844 407.644531 768.011719 369.789062 767.824219 333.414062 Z M 767.824219 333.414062 " fill-opacity="1" fill-rule="nonzero"/></svg>