<svg id="visual" viewBox="0 0 1920 1080" width="1920" height="1080" xmlns="http://www.w3.org/2000/svg" xmlns:xlink="http://www.w3.org/1999/xlink" version="1.1"><rect x="0" y="0" width="1920" height="1080" fill="#1b1c3e"></rect><path d="M0 538L45.7 527.5C91.3 517 182.7 496 274.2 506.5C365.7 517 457.3 559 548.8 555.7C640.3 552.3 731.7 503.7 823 494.7C914.3 485.7 1005.7 516.3 1097 540.7C1188.3 565 1279.7 583 1371.2 604.5C1462.7 626 1554.3 651 1645.8 654C1737.3 657 1828.7 638 1874.3 628.5L1920 619L1920 1081L1874.3 1081C1828.7 1081 1737.3 1081 1645.8 1081C1554.3 1081 1462.7 1081 1371.2 1081C1279.7 1081 1188.3 1081 1097 1081C1005.7 1081 914.3 1081 823 1081C731.7 1081 640.3 1081 548.8 1081C457.3 1081 365.7 1081 274.2 1081C182.7 1081 91.3 1081 45.7 1081L0 1081Z" fill="#ff4fcf"></path><path d="M0 701L45.7 690.7C91.3 680.3 182.7 659.7 274.2 648C365.7 636.3 457.3 633.7 548.8 642.3C640.3 651 731.7 671 823 687.8C914.3 704.7 1005.7 718.3 1097 705.7C1188.3 693 1279.7 654 1371.2 626.2C1462.7 598.3 1554.3 581.7 1645.8 575.2C1737.3 568.7 1828.7 572.3 1874.3 574.2L1920 576L1920 1081L1874.3 1081C1828.7 1081 1737.3 1081 1645.8 1081C1554.3 1081 1462.7 1081 1371.2 1081C1279.7 1081 1188.3 1081 1097 1081C1005.7 1081 914.3 1081 823 1081C731.7 1081 640.3 1081 548.8 1081C457.3 1081 365.7 1081 274.2 1081C182.7 1081 91.3 1081 45.7 1081L0 1081Z" fill="#ce78f2"></path><path d="M0 770L45.7 759C91.3 748 182.7 726 274.2 713.3C365.7 700.7 457.3 697.3 548.8 718.5C640.3 739.7 731.7 785.3 823 798C914.3 810.7 1005.7 790.3 1097 781.2C1188.3 772 1279.7 774 1371.2 776.5C1462.7 779 1554.3 782 1645.8 781.3C1737.3 780.7 1828.7 776.3 1874.3 774.2L1920 772L1920 1081L1874.3 1081C1828.7 1081 1737.3 1081 1645.8 1081C1554.3 1081 1462.7 1081 1371.2 1081C1279.7 1081 1188.3 1081 1097 1081C1005.7 1081 914.3 1081 823 1081C731.7 1081 640.3 1081 548.8 1081C457.3 1081 365.7 1081 274.2 1081C182.7 1081 91.3 1081 45.7 1081L0 1081Z" fill="#9793ff"></path><path d="M0 937L45.7 936.3C91.3 935.7 182.7 934.3 274.2 909C365.7 883.7 457.3 834.3 548.8 820.2C640.3 806 731.7 827 823 848.3C914.3 869.7 1005.7 891.3 1097 905.7C1188.3 920 1279.7 927 1371.2 921.3C1462.7 915.7 1554.3 897.3 1645.8 875.7C1737.3 854 1828.7 829 1874.3 816.5L1920 804L1920 1081L1874.3 1081C1828.7 1081 1737.3 1081 1645.8 1081C1554.3 1081 1462.7 1081 1371.2 1081C1279.7 1081 1188.3 1081 1097 1081C1005.7 1081 914.3 1081 823 1081C731.7 1081 640.3 1081 548.8 1081C457.3 1081 365.7 1081 274.2 1081C182.7 1081 91.3 1081 45.7 1081L0 1081Z" fill="#5da6ff"></path><path d="M0 980L45.7 969.2C91.3 958.3 182.7 936.7 274.2 925C365.7 913.3 457.3 911.7 548.8 914.2C640.3 916.7 731.7 923.3 823 932.7C914.3 942 1005.7 954 1097 959.3C1188.3 964.7 1279.7 963.3 1371.2 954.7C1462.7 946 1554.3 930 1645.8 932.3C1737.3 934.7 1828.7 955.3 1874.3 965.7L1920 976L1920 1081L1874.3 1081C1828.7 1081 1737.3 1081 1645.8 1081C1554.3 1081 1462.7 1081 1371.2 1081C1279.7 1081 1188.3 1081 1097 1081C1005.7 1081 914.3 1081 823 1081C731.7 1081 640.3 1081 548.8 1081C457.3 1081 365.7 1081 274.2 1081C182.7 1081 91.3 1081 45.7 1081L0 1081Z" fill="#00b4ff"></path></svg>