<svg xmlns="http://www.w3.org/2000/svg" xmlns:xlink="http://www.w3.org/1999/xlink" width="1024" zoomAndPan="magnify" viewBox="0 0 768 767.999994" height="1024" preserveAspectRatio="xMidYMid meet" version="1.0"><defs><g/><clipPath id="14d8509a4b"><path d="M 23.71875 222.390625 L 744.640625 222.390625 L 744.640625 545.609375 L 23.71875 545.609375 Z M 23.71875 222.390625 " clip-rule="nonzero"/></clipPath><clipPath id="bb9632dda3"><path d="M 59.71875 222.390625 L 708.28125 222.390625 C 717.828125 222.390625 726.984375 226.183594 733.734375 232.9375 C 740.488281 239.6875 744.28125 248.84375 744.28125 258.390625 L 744.28125 509.609375 C 744.28125 519.15625 740.488281 528.3125 733.734375 535.0625 C 726.984375 541.816406 717.828125 545.609375 708.28125 545.609375 L 59.71875 545.609375 C 50.171875 545.609375 41.015625 541.816406 34.265625 535.0625 C 27.511719 528.3125 23.71875 519.15625 23.71875 509.609375 L 23.71875 258.390625 C 23.71875 248.84375 27.511719 239.6875 34.265625 232.9375 C 41.015625 226.183594 50.171875 222.390625 59.71875 222.390625 Z M 59.71875 222.390625 " clip-rule="nonzero"/></clipPath></defs><g clip-path="url(#14d8509a4b)"><g clip-path="url(#bb9632dda3)"><path fill="#7c85f4" d="M 23.71875 222.390625 L 744.640625 222.390625 L 744.640625 545.609375 L 23.71875 545.609375 Z M 23.71875 222.390625 " fill-opacity="1" fill-rule="nonzero"/></g></g><g fill="#ffffff" fill-opacity="1"><g transform="translate(331.21112, 374.749542)"><g><path d="M 15.453125 0 C 13.359375 0 11.660156 -0.648438 10.359375 -1.953125 C 9.054688 -3.265625 8.40625 -4.890625 8.40625 -6.828125 L 8.40625 -71.5625 C 8.40625 -73.5 9.054688 -75.117188 10.359375 -76.421875 C 11.660156 -77.734375 13.285156 -78.390625 15.234375 -78.390625 L 51.625 -78.390625 C 53.5625 -78.390625 55.179688 -77.769531 56.484375 -76.53125 C 57.796875 -75.300781 58.453125 -73.71875 58.453125 -71.78125 C 58.453125 -70.132812 57.796875 -68.675781 56.484375 -67.40625 C 55.179688 -66.144531 53.5625 -65.515625 51.625 -65.515625 L 21.390625 -65.515625 L 22.390625 -66.859375 L 22.390625 -44.34375 L 21.609375 -45.796875 L 46.578125 -45.796875 C 48.523438 -45.796875 50.148438 -45.179688 51.453125 -43.953125 C 52.765625 -42.722656 53.421875 -41.132812 53.421875 -39.1875 C 53.421875 -37.550781 52.765625 -36.097656 51.453125 -34.828125 C 50.148438 -33.554688 48.523438 -32.921875 46.578125 -32.921875 L 21.390625 -32.921875 L 22.390625 -33.9375 L 22.390625 -6.828125 C 22.390625 -4.890625 21.695312 -3.265625 20.3125 -1.953125 C 18.9375 -0.648438 17.316406 0 15.453125 0 Z M 15.453125 0 "/></g></g></g><g fill="#ffffff" fill-opacity="1"><g transform="translate(394.146332, 374.749542)"><g><path d="M 51.734375 -59.90625 C 53.671875 -59.90625 55.273438 -59.253906 56.546875 -57.953125 C 57.816406 -56.648438 58.453125 -55.023438 58.453125 -53.078125 L 58.453125 -24.640625 C 58.453125 -16.722656 56.25 -10.445312 51.84375 -5.8125 C 47.4375 -1.1875 41.09375 1.125 32.8125 1.125 C 24.519531 1.125 18.191406 -1.1875 13.828125 -5.8125 C 9.460938 -10.445312 7.28125 -16.722656 7.28125 -24.640625 L 7.28125 -53.078125 C 7.28125 -55.023438 7.914062 -56.648438 9.1875 -57.953125 C 10.457031 -59.253906 12.0625 -59.90625 14 -59.90625 C 15.9375 -59.90625 17.539062 -59.253906 18.8125 -57.953125 C 20.082031 -56.648438 20.71875 -55.023438 20.71875 -53.078125 L 20.71875 -24.640625 C 20.71875 -20.085938 21.722656 -16.707031 23.734375 -14.5 C 25.753906 -12.300781 28.78125 -11.203125 32.8125 -11.203125 C 36.914062 -11.203125 39.972656 -12.300781 41.984375 -14.5 C 44.003906 -16.707031 45.015625 -20.085938 45.015625 -24.640625 L 45.015625 -53.078125 C 45.015625 -55.023438 45.648438 -56.648438 46.921875 -57.953125 C 48.191406 -59.253906 49.796875 -59.90625 51.734375 -59.90625 Z M 51.734375 -59.90625 "/></g></g></g><g fill="#ffffff" fill-opacity="1"><g transform="translate(459.881158, 374.749542)"><g><path d="M 7.953125 -58.796875 L 34.484375 -58.796875 C 36.273438 -58.796875 37.769531 -58.195312 38.96875 -57 C 40.164062 -55.800781 40.765625 -54.304688 40.765625 -52.515625 C 40.765625 -50.796875 40.164062 -49.359375 38.96875 -48.203125 C 37.769531 -47.046875 36.273438 -46.46875 34.484375 -46.46875 L 7.953125 -46.46875 C 6.160156 -46.46875 4.664062 -47.066406 3.46875 -48.265625 C 2.28125 -49.460938 1.6875 -50.957031 1.6875 -52.75 C 1.6875 -54.46875 2.28125 -55.90625 3.46875 -57.0625 C 4.664062 -58.21875 6.160156 -58.796875 7.953125 -58.796875 Z M 19.9375 -72.796875 C 21.875 -72.796875 23.457031 -72.140625 24.6875 -70.828125 C 25.925781 -69.523438 26.546875 -67.898438 26.546875 -65.953125 L 26.546875 -16.125 C 26.546875 -15.082031 26.75 -14.222656 27.15625 -13.546875 C 27.5625 -12.878906 28.117188 -12.394531 28.828125 -12.09375 C 29.546875 -11.789062 30.3125 -11.640625 31.125 -11.640625 C 32.019531 -11.640625 32.84375 -11.804688 33.59375 -12.140625 C 34.34375 -12.484375 35.203125 -12.65625 36.171875 -12.65625 C 37.210938 -12.65625 38.160156 -12.171875 39.015625 -11.203125 C 39.878906 -10.234375 40.3125 -8.890625 40.3125 -7.171875 C 40.3125 -5.078125 39.171875 -3.359375 36.890625 -2.015625 C 34.617188 -0.671875 32.175781 0 29.5625 0 C 28 0 26.265625 -0.128906 24.359375 -0.390625 C 22.453125 -0.648438 20.660156 -1.285156 18.984375 -2.296875 C 17.304688 -3.304688 15.90625 -4.851562 14.78125 -6.9375 C 13.664062 -9.03125 13.109375 -11.90625 13.109375 -15.5625 L 13.109375 -65.953125 C 13.109375 -67.898438 13.757812 -69.523438 15.0625 -70.828125 C 16.363281 -72.140625 17.988281 -72.796875 19.9375 -72.796875 Z M 19.9375 -72.796875 "/></g></g></g><g fill="#ffffff" fill-opacity="1"><g transform="translate(505.682769, 374.749542)"><g><path d="M 51.734375 -59.90625 C 53.671875 -59.90625 55.273438 -59.253906 56.546875 -57.953125 C 57.816406 -56.648438 58.453125 -55.023438 58.453125 -53.078125 L 58.453125 -24.640625 C 58.453125 -16.722656 56.25 -10.445312 51.84375 -5.8125 C 47.4375 -1.1875 41.09375 1.125 32.8125 1.125 C 24.519531 1.125 18.191406 -1.1875 13.828125 -5.8125 C 9.460938 -10.445312 7.28125 -16.722656 7.28125 -24.640625 L 7.28125 -53.078125 C 7.28125 -55.023438 7.914062 -56.648438 9.1875 -57.953125 C 10.457031 -59.253906 12.0625 -59.90625 14 -59.90625 C 15.9375 -59.90625 17.539062 -59.253906 18.8125 -57.953125 C 20.082031 -56.648438 20.71875 -55.023438 20.71875 -53.078125 L 20.71875 -24.640625 C 20.71875 -20.085938 21.722656 -16.707031 23.734375 -14.5 C 25.753906 -12.300781 28.78125 -11.203125 32.8125 -11.203125 C 36.914062 -11.203125 39.972656 -12.300781 41.984375 -14.5 C 44.003906 -16.707031 45.015625 -20.085938 45.015625 -24.640625 L 45.015625 -53.078125 C 45.015625 -55.023438 45.648438 -56.648438 46.921875 -57.953125 C 48.191406 -59.253906 49.796875 -59.90625 51.734375 -59.90625 Z M 51.734375 -59.90625 "/></g></g></g><g fill="#ffffff" fill-opacity="1"><g transform="translate(571.417606, 374.749542)"><g><path d="M 14 0 C 12.0625 0 10.457031 -0.648438 9.1875 -1.953125 C 7.914062 -3.265625 7.28125 -4.890625 7.28125 -6.828125 L 7.28125 -53.078125 C 7.28125 -55.023438 7.914062 -56.648438 9.1875 -57.953125 C 10.457031 -59.253906 12.0625 -59.90625 14 -59.90625 C 15.9375 -59.90625 17.539062 -59.253906 18.8125 -57.953125 C 20.082031 -56.648438 20.71875 -55.023438 20.71875 -53.078125 L 20.71875 -42.546875 L 19.9375 -50.0625 C 20.757812 -51.851562 21.820312 -53.4375 23.125 -54.8125 C 24.425781 -56.195312 25.898438 -57.351562 27.546875 -58.28125 C 29.191406 -59.21875 30.945312 -59.910156 32.8125 -60.359375 C 34.675781 -60.804688 36.539062 -61.03125 38.40625 -61.03125 C 40.644531 -61.03125 42.53125 -60.394531 44.0625 -59.125 C 45.59375 -57.851562 46.359375 -56.359375 46.359375 -54.640625 C 46.359375 -52.179688 45.722656 -50.410156 44.453125 -49.328125 C 43.179688 -48.242188 41.800781 -47.703125 40.3125 -47.703125 C 38.894531 -47.703125 37.609375 -47.960938 36.453125 -48.484375 C 35.296875 -49.003906 33.96875 -49.265625 32.46875 -49.265625 C 31.125 -49.265625 29.757812 -48.945312 28.375 -48.3125 C 27 -47.6875 25.734375 -46.703125 24.578125 -45.359375 C 23.421875 -44.015625 22.488281 -42.351562 21.78125 -40.375 C 21.070312 -38.394531 20.71875 -36.0625 20.71875 -33.375 L 20.71875 -6.828125 C 20.71875 -4.890625 20.082031 -3.265625 18.8125 -1.953125 C 17.539062 -0.648438 15.9375 0 14 0 Z M 14 0 "/></g></g></g><g fill="#ffffff" fill-opacity="1"><g transform="translate(620.01883, 374.749542)"><g><path d="M 35.5 1.125 C 29.15625 1.125 23.648438 -0.195312 18.984375 -2.84375 C 14.316406 -5.5 10.734375 -9.101562 8.234375 -13.65625 C 5.734375 -18.21875 4.484375 -23.367188 4.484375 -29.109375 C 4.484375 -35.828125 5.84375 -41.554688 8.5625 -46.296875 C 11.289062 -51.046875 14.859375 -54.6875 19.265625 -57.21875 C 23.671875 -59.757812 28.335938 -61.03125 33.265625 -61.03125 C 37.066406 -61.03125 40.664062 -60.242188 44.0625 -58.671875 C 47.457031 -57.109375 50.460938 -54.960938 53.078125 -52.234375 C 55.691406 -49.515625 57.765625 -46.363281 59.296875 -42.78125 C 60.828125 -39.195312 61.59375 -35.390625 61.59375 -31.359375 C 61.519531 -29.566406 60.8125 -28.109375 59.46875 -26.984375 C 58.125 -25.867188 56.554688 -25.3125 54.765625 -25.3125 L 11.984375 -25.3125 L 8.625 -36.5 L 49.71875 -36.5 L 47.25 -34.265625 L 47.25 -37.296875 C 47.101562 -39.453125 46.335938 -41.390625 44.953125 -43.109375 C 43.578125 -44.828125 41.863281 -46.191406 39.8125 -47.203125 C 37.757812 -48.210938 35.578125 -48.71875 33.265625 -48.71875 C 31.023438 -48.71875 28.929688 -48.414062 26.984375 -47.8125 C 25.046875 -47.21875 23.367188 -46.210938 21.953125 -44.796875 C 20.535156 -43.378906 19.414062 -41.472656 18.59375 -39.078125 C 17.769531 -36.691406 17.359375 -33.671875 17.359375 -30.015625 C 17.359375 -25.984375 18.195312 -22.566406 19.875 -19.765625 C 21.550781 -16.960938 23.710938 -14.832031 26.359375 -13.375 C 29.015625 -11.925781 31.835938 -11.203125 34.828125 -11.203125 C 37.585938 -11.203125 39.785156 -11.425781 41.421875 -11.875 C 43.066406 -12.320312 44.394531 -12.863281 45.40625 -13.5 C 46.414062 -14.132812 47.332031 -14.675781 48.15625 -15.125 C 49.5 -15.789062 50.765625 -16.125 51.953125 -16.125 C 53.597656 -16.125 54.960938 -15.5625 56.046875 -14.4375 C 57.128906 -13.320312 57.671875 -12.019531 57.671875 -10.53125 C 57.671875 -8.507812 56.625 -6.679688 54.53125 -5.046875 C 52.59375 -3.398438 49.867188 -1.957031 46.359375 -0.71875 C 42.847656 0.507812 39.226562 1.125 35.5 1.125 Z M 35.5 1.125 "/></g></g></g><g fill="#ffffff" fill-opacity="1"><g transform="translate(331.21112, 476.248191)"><g><path d="M 34.015625 -58.515625 C 37.585938 -58.515625 40.863281 -58.117188 43.84375 -57.328125 C 46.832031 -56.546875 49.238281 -55.484375 51.0625 -54.140625 C 52.894531 -52.804688 53.8125 -51.351562 53.8125 -49.78125 C 53.8125 -49.039062 53.550781 -48.316406 53.03125 -47.609375 C 52.507812 -46.898438 51.800781 -46.546875 50.90625 -46.546875 C 50.007812 -46.546875 49.28125 -46.765625 48.71875 -47.203125 C 48.15625 -47.648438 47.59375 -48.171875 47.03125 -48.765625 C 46.476562 -49.367188 45.679688 -49.929688 44.640625 -50.453125 C 43.671875 -50.898438 42.289062 -51.3125 40.5 -51.6875 C 38.707031 -52.0625 36.65625 -52.25 34.34375 -52.25 C 30.164062 -52.25 26.398438 -51.203125 23.046875 -49.109375 C 19.691406 -47.023438 17.039062 -44.210938 15.09375 -40.671875 C 13.15625 -37.128906 12.1875 -33.15625 12.1875 -28.75 C 12.1875 -24.28125 13.117188 -20.253906 14.984375 -16.671875 C 16.847656 -13.085938 19.421875 -10.269531 22.703125 -8.21875 C 25.992188 -6.164062 29.835938 -5.140625 34.234375 -5.140625 C 37.210938 -5.140625 39.519531 -5.398438 41.15625 -5.921875 C 42.800781 -6.453125 44.222656 -7.050781 45.421875 -7.71875 C 46.835938 -8.539062 47.863281 -9.34375 48.5 -10.125 C 49.132812 -10.90625 49.972656 -11.296875 51.015625 -11.296875 C 51.984375 -11.296875 52.707031 -11.015625 53.1875 -10.453125 C 53.675781 -9.898438 53.921875 -9.175781 53.921875 -8.28125 C 53.921875 -7.082031 53.046875 -5.753906 51.296875 -4.296875 C 49.546875 -2.847656 47.140625 -1.582031 44.078125 -0.5 C 41.015625 0.582031 37.507812 1.125 33.5625 1.125 C 27.96875 1.125 23.0625 -0.179688 18.84375 -2.796875 C 14.632812 -5.410156 11.351562 -8.972656 9 -13.484375 C 6.65625 -17.992188 5.484375 -23.082031 5.484375 -28.75 C 5.484375 -34.195312 6.675781 -39.15625 9.0625 -43.625 C 11.445312 -48.101562 14.78125 -51.703125 19.0625 -54.421875 C 23.351562 -57.148438 28.335938 -58.515625 34.015625 -58.515625 Z M 34.015625 -58.515625 "/></g></g></g><g fill="#ffffff" fill-opacity="1"><g transform="translate(389.161185, 476.248191)"><g><path d="M 62.09375 -28.640625 C 62.09375 -22.972656 60.859375 -17.878906 58.390625 -13.359375 C 55.929688 -8.847656 52.578125 -5.304688 48.328125 -2.734375 C 44.078125 -0.160156 39.226562 1.125 33.78125 1.125 C 28.488281 1.125 23.695312 -0.160156 19.40625 -2.734375 C 15.125 -5.304688 11.734375 -8.847656 9.234375 -13.359375 C 6.734375 -17.878906 5.484375 -22.972656 5.484375 -28.640625 C 5.484375 -34.378906 6.734375 -39.484375 9.234375 -43.953125 C 11.734375 -48.429688 15.125 -51.976562 19.40625 -54.59375 C 23.695312 -57.207031 28.488281 -58.515625 33.78125 -58.515625 C 39.226562 -58.515625 44.078125 -57.207031 48.328125 -54.59375 C 52.578125 -51.976562 55.929688 -48.429688 58.390625 -43.953125 C 60.859375 -39.484375 62.09375 -34.378906 62.09375 -28.640625 Z M 55.375 -28.640625 C 55.375 -33.191406 54.441406 -37.238281 52.578125 -40.78125 C 50.710938 -44.320312 48.15625 -47.117188 44.90625 -49.171875 C 41.664062 -51.222656 37.957031 -52.25 33.78125 -52.25 C 29.757812 -52.25 26.109375 -51.222656 22.828125 -49.171875 C 19.546875 -47.117188 16.953125 -44.320312 15.046875 -40.78125 C 13.140625 -37.238281 12.1875 -33.191406 12.1875 -28.640625 C 12.1875 -24.085938 13.140625 -20.054688 15.046875 -16.546875 C 16.953125 -13.046875 19.546875 -10.269531 22.828125 -8.21875 C 26.109375 -6.164062 29.757812 -5.140625 33.78125 -5.140625 C 37.957031 -5.140625 41.664062 -6.164062 44.90625 -8.21875 C 48.15625 -10.269531 50.710938 -13.046875 52.578125 -16.546875 C 54.441406 -20.054688 55.375 -24.085938 55.375 -28.640625 Z M 55.375 -28.640625 "/></g></g></g><g fill="#ffffff" fill-opacity="1"><g transform="translate(456.732299, 476.248191)"><g><path d="M 55.71875 -82.78125 C 56.6875 -82.78125 57.484375 -82.460938 58.109375 -81.828125 C 58.742188 -81.203125 59.0625 -80.40625 59.0625 -79.4375 L 59.0625 -3.359375 C 59.0625 -2.460938 58.726562 -1.675781 58.0625 -1 C 57.394531 -0.332031 56.613281 0 55.71875 0 C 54.75 0 53.945312 -0.332031 53.3125 -1 C 52.675781 -1.675781 52.359375 -2.460938 52.359375 -3.359375 L 52.359375 -16.671875 L 54.265625 -18.234375 C 54.265625 -16.148438 53.703125 -13.96875 52.578125 -11.6875 C 51.460938 -9.414062 49.878906 -7.3125 47.828125 -5.375 C 45.773438 -3.4375 43.382812 -1.867188 40.65625 -0.671875 C 37.9375 0.523438 35.015625 1.125 31.890625 1.125 C 26.890625 1.125 22.394531 -0.179688 18.40625 -2.796875 C 14.414062 -5.410156 11.265625 -8.953125 8.953125 -13.421875 C 6.640625 -17.898438 5.484375 -23.007812 5.484375 -28.75 C 5.484375 -34.414062 6.640625 -39.503906 8.953125 -44.015625 C 11.265625 -48.535156 14.394531 -52.082031 18.34375 -54.65625 C 22.300781 -57.226562 26.773438 -58.515625 31.765625 -58.515625 C 34.828125 -58.515625 37.738281 -57.953125 40.5 -56.828125 C 43.257812 -55.710938 45.703125 -54.1875 47.828125 -52.25 C 49.953125 -50.3125 51.628906 -48.09375 52.859375 -45.59375 C 54.085938 -43.09375 54.703125 -40.5 54.703125 -37.8125 L 52.359375 -39.484375 L 52.359375 -79.4375 C 52.359375 -80.332031 52.675781 -81.113281 53.3125 -81.78125 C 53.945312 -82.445312 54.75 -82.78125 55.71875 -82.78125 Z M 32.4375 -5.140625 C 36.46875 -5.140625 39.992188 -6.164062 43.015625 -8.21875 C 46.035156 -10.269531 48.421875 -13.066406 50.171875 -16.609375 C 51.929688 -20.148438 52.8125 -24.195312 52.8125 -28.75 C 52.8125 -33.226562 51.929688 -37.238281 50.171875 -40.78125 C 48.421875 -44.320312 46.015625 -47.117188 42.953125 -49.171875 C 39.898438 -51.222656 36.394531 -52.25 32.4375 -52.25 C 28.5625 -52.25 25.078125 -51.222656 21.984375 -49.171875 C 18.890625 -47.117188 16.460938 -44.320312 14.703125 -40.78125 C 12.953125 -37.238281 12.078125 -33.226562 12.078125 -28.75 C 12.078125 -24.28125 12.953125 -20.253906 14.703125 -16.671875 C 16.460938 -13.085938 18.890625 -10.269531 21.984375 -8.21875 C 25.078125 -6.164062 28.5625 -5.140625 32.4375 -5.140625 Z M 32.4375 -5.140625 "/></g></g></g><g fill="#ffffff" fill-opacity="1"><g transform="translate(524.527155, 476.248191)"><g><path d="M 34.6875 1.125 C 28.9375 1.125 23.859375 -0.101562 19.453125 -2.5625 C 15.054688 -5.03125 11.628906 -8.460938 9.171875 -12.859375 C 6.710938 -17.265625 5.484375 -22.410156 5.484375 -28.296875 C 5.484375 -34.640625 6.734375 -40.046875 9.234375 -44.515625 C 11.734375 -48.992188 14.976562 -52.445312 18.96875 -54.875 C 22.957031 -57.300781 27.1875 -58.515625 31.65625 -58.515625 C 34.9375 -58.515625 38.125 -57.9375 41.21875 -56.78125 C 44.320312 -55.625 47.082031 -53.90625 49.5 -51.625 C 51.925781 -49.351562 53.863281 -46.578125 55.3125 -43.296875 C 56.769531 -40.015625 57.578125 -36.210938 57.734375 -31.890625 C 57.648438 -30.992188 57.273438 -30.226562 56.609375 -29.59375 C 55.941406 -28.957031 55.160156 -28.640625 54.265625 -28.640625 L 9.390625 -28.640625 L 8.0625 -34.6875 L 52.140625 -34.6875 L 50.671875 -33.34375 L 50.671875 -35.578125 C 50.378906 -39.078125 49.265625 -42.054688 47.328125 -44.515625 C 45.390625 -46.984375 43.039062 -48.847656 40.28125 -50.109375 C 37.519531 -51.378906 34.644531 -52.015625 31.65625 -52.015625 C 29.414062 -52.015625 27.117188 -51.566406 24.765625 -50.671875 C 22.421875 -49.785156 20.296875 -48.390625 18.390625 -46.484375 C 16.492188 -44.578125 14.945312 -42.148438 13.75 -39.203125 C 12.5625 -36.265625 11.96875 -32.78125 11.96875 -28.75 C 11.96875 -24.351562 12.863281 -20.363281 14.65625 -16.78125 C 16.445312 -13.195312 19.035156 -10.359375 22.421875 -8.265625 C 25.816406 -6.179688 29.863281 -5.140625 34.5625 -5.140625 C 37.175781 -5.140625 39.523438 -5.515625 41.609375 -6.265625 C 43.703125 -7.015625 45.53125 -8.003906 47.09375 -9.234375 C 48.664062 -10.460938 49.972656 -11.75 51.015625 -13.09375 C 51.835938 -13.757812 52.65625 -14.09375 53.46875 -14.09375 C 54.21875 -14.09375 54.867188 -13.796875 55.421875 -13.203125 C 55.984375 -12.609375 56.265625 -11.9375 56.265625 -11.1875 C 56.265625 -10.289062 55.894531 -9.507812 55.15625 -8.84375 C 52.914062 -6.15625 50.003906 -3.820312 46.421875 -1.84375 C 42.847656 0.132812 38.9375 1.125 34.6875 1.125 Z M 34.6875 1.125 "/></g></g></g><g fill="#ffffff" fill-opacity="1"><g transform="translate(587.735224, 476.248191)"><g><path d="M 12.1875 0 C 11.144531 0 10.328125 -0.332031 9.734375 -1 C 9.140625 -1.675781 8.84375 -2.460938 8.84375 -3.359375 L 8.84375 -53.46875 C 8.84375 -54.363281 9.15625 -55.144531 9.78125 -55.8125 C 10.414062 -56.488281 11.21875 -56.828125 12.1875 -56.828125 C 13.164062 -56.828125 13.96875 -56.488281 14.59375 -55.8125 C 15.226562 -55.144531 15.546875 -54.363281 15.546875 -53.46875 L 15.546875 -36.6875 L 13.875 -36.359375 C 14.09375 -38.972656 14.742188 -41.566406 15.828125 -44.140625 C 16.910156 -46.710938 18.382812 -49.078125 20.25 -51.234375 C 22.113281 -53.398438 24.332031 -55.15625 26.90625 -56.5 C 29.476562 -57.84375 32.367188 -58.515625 35.578125 -58.515625 C 36.921875 -58.515625 38.222656 -58.234375 39.484375 -57.671875 C 40.753906 -57.109375 41.390625 -56.195312 41.390625 -54.9375 C 41.390625 -53.8125 41.09375 -52.953125 40.5 -52.359375 C 39.90625 -51.765625 39.195312 -51.46875 38.375 -51.46875 C 37.695312 -51.46875 36.96875 -51.648438 36.1875 -52.015625 C 35.40625 -52.390625 34.378906 -52.578125 33.109375 -52.578125 C 31.023438 -52.578125 28.9375 -51.960938 26.84375 -50.734375 C 24.757812 -49.503906 22.859375 -47.84375 21.140625 -45.75 C 19.429688 -43.664062 18.070312 -41.335938 17.0625 -38.765625 C 16.050781 -36.191406 15.546875 -33.597656 15.546875 -30.984375 L 15.546875 -3.359375 C 15.546875 -2.460938 15.207031 -1.675781 14.53125 -1 C 13.863281 -0.332031 13.082031 0 12.1875 0 Z M 12.1875 0 "/></g></g></g><g fill="#ffffff" fill-opacity="1"><g transform="translate(630.806214, 476.248191)"><g><path d="M 5.59375 -9.0625 C 5 -9.957031 4.71875 -10.832031 4.75 -11.6875 C 4.789062 -12.550781 5.257812 -13.242188 6.15625 -13.765625 C 6.75 -14.285156 7.4375 -14.503906 8.21875 -14.421875 C 9 -14.347656 9.726562 -13.976562 10.40625 -13.3125 C 12.414062 -10.695312 14.859375 -8.585938 17.734375 -6.984375 C 20.609375 -5.390625 24.019531 -4.59375 27.96875 -4.59375 C 30.050781 -4.59375 32.117188 -4.945312 34.171875 -5.65625 C 36.222656 -6.363281 37.921875 -7.441406 39.265625 -8.890625 C 40.609375 -10.347656 41.28125 -12.195312 41.28125 -14.4375 C 41.28125 -16.75 40.609375 -18.613281 39.265625 -20.03125 C 37.921875 -21.445312 36.1875 -22.5625 34.0625 -23.375 C 31.9375 -24.195312 29.679688 -24.90625 27.296875 -25.5 C 24.765625 -26.175781 22.300781 -26.941406 19.90625 -27.796875 C 17.519531 -28.660156 15.414062 -29.742188 13.59375 -31.046875 C 11.769531 -32.347656 10.296875 -33.929688 9.171875 -35.796875 C 8.054688 -37.660156 7.5 -39.9375 7.5 -42.625 C 7.5 -45.757812 8.351562 -48.519531 10.0625 -50.90625 C 11.78125 -53.289062 14.113281 -55.15625 17.0625 -56.5 C 20.007812 -57.84375 23.347656 -58.515625 27.078125 -58.515625 C 28.941406 -58.515625 30.953125 -58.269531 33.109375 -57.78125 C 35.273438 -57.300781 37.398438 -56.5 39.484375 -55.375 C 41.578125 -54.257812 43.441406 -52.734375 45.078125 -50.796875 C 45.753906 -50.117188 46.09375 -49.351562 46.09375 -48.5 C 46.09375 -47.644531 45.71875 -46.878906 44.96875 -46.203125 C 44.375 -45.753906 43.6875 -45.53125 42.90625 -45.53125 C 42.125 -45.53125 41.472656 -45.828125 40.953125 -46.421875 C 39.160156 -48.441406 37.03125 -49.972656 34.5625 -51.015625 C 32.101562 -52.054688 29.457031 -52.578125 26.625 -52.578125 C 24.457031 -52.578125 22.421875 -52.222656 20.515625 -51.515625 C 18.617188 -50.804688 17.035156 -49.742188 15.765625 -48.328125 C 14.503906 -46.910156 13.875 -45.046875 13.875 -42.734375 C 14.019531 -40.566406 14.78125 -38.8125 16.15625 -37.46875 C 17.539062 -36.132812 19.367188 -35.019531 21.640625 -34.125 C 23.921875 -33.226562 26.476562 -32.40625 29.3125 -31.65625 C 31.695312 -31.0625 33.988281 -30.351562 36.1875 -29.53125 C 38.382812 -28.707031 40.320312 -27.679688 42 -26.453125 C 43.6875 -25.222656 45.03125 -23.675781 46.03125 -21.8125 C 47.039062 -19.945312 47.546875 -17.597656 47.546875 -14.765625 C 47.546875 -11.484375 46.628906 -8.648438 44.796875 -6.265625 C 42.972656 -3.878906 40.53125 -2.050781 37.46875 -0.78125 C 34.414062 0.488281 31.023438 1.125 27.296875 1.125 C 23.265625 1.125 19.363281 0.34375 15.59375 -1.21875 C 11.832031 -2.789062 8.5 -5.40625 5.59375 -9.0625 Z M 5.59375 -9.0625 "/></g></g></g><g fill="#ffffff" fill-opacity="1"><g transform="translate(81.876004, 432.336407)"><g><path d="M 56.09375 -9.53125 C 55.125 -9.53125 54.085938 -9.816406 52.984375 -10.390625 C 51.890625 -10.960938 50.722656 -11.601562 49.484375 -12.3125 L 6.484375 -37.578125 C 5.421875 -38.285156 4.625 -39.1875 4.09375 -40.28125 C 3.570312 -41.382812 3.3125 -42.507812 3.3125 -43.65625 C 3.3125 -44.894531 3.570312 -46.066406 4.09375 -47.171875 C 4.625 -48.273438 5.421875 -49.132812 6.484375 -49.75 L 49.484375 -74.484375 C 50.628906 -75.191406 51.707031 -75.742188 52.71875 -76.140625 C 53.738281 -76.535156 54.691406 -76.734375 55.578125 -76.734375 C 57.335938 -76.734375 58.988281 -75.875 60.53125 -74.15625 C 62.070312 -72.4375 62.84375 -70.648438 62.84375 -68.796875 C 62.84375 -67.921875 62.597656 -67.0625 62.109375 -66.21875 C 61.628906 -65.382812 60.90625 -64.660156 59.9375 -64.046875 L 14.03125 -37.4375 L 13.09375 -50.671875 L 59.8125 -22.75 C 60.863281 -22.132812 61.609375 -21.363281 62.046875 -20.4375 C 62.492188 -19.507812 62.71875 -18.5625 62.71875 -17.59375 C 62.71875 -15.476562 61.988281 -13.601562 60.53125 -11.96875 C 59.070312 -10.34375 57.59375 -9.53125 56.09375 -9.53125 Z M 56.09375 -9.53125 "/></g></g></g><g fill="#ffffff" fill-opacity="1"><g transform="translate(151.330082, 432.336407)"><g><path d="M 11.109375 17.734375 C 9.609375 17.734375 8.066406 17.113281 6.484375 15.875 C 4.898438 14.644531 4.109375 13.054688 4.109375 11.109375 C 4.109375 10.054688 4.367188 9 4.890625 7.9375 L 58.609375 -102.015625 C 59.234375 -103.242188 60.070312 -104.210938 61.125 -104.921875 C 62.1875 -105.628906 63.289062 -105.984375 64.4375 -105.984375 C 65.9375 -105.984375 67.457031 -105.382812 69 -104.1875 C 70.539062 -103 71.3125 -101.390625 71.3125 -99.359375 C 71.3125 -98.304688 71.046875 -97.25 70.515625 -96.1875 L 16.9375 13.765625 C 16.320312 14.992188 15.503906 15.960938 14.484375 16.671875 C 13.472656 17.378906 12.347656 17.734375 11.109375 17.734375 Z M 11.109375 17.734375 "/></g></g></g><g fill="#ffffff" fill-opacity="1"><g transform="translate(226.472776, 432.336407)"><g><path d="M 13.890625 -11.109375 C 12.128906 -11.109375 10.472656 -11.96875 8.921875 -13.6875 C 7.378906 -15.414062 6.609375 -17.203125 6.609375 -19.046875 C 6.609375 -20.023438 6.851562 -20.910156 7.34375 -21.703125 C 7.832031 -22.492188 8.5625 -23.195312 9.53125 -23.8125 L 55.4375 -50.40625 L 56.359375 -37.1875 L 9.65625 -65.09375 C 8.601562 -65.71875 7.851562 -66.488281 7.40625 -67.40625 C 6.96875 -68.332031 6.75 -69.285156 6.75 -70.265625 C 6.75 -72.378906 7.5 -74.25 9 -75.875 C 10.5 -77.507812 11.953125 -78.328125 13.359375 -78.328125 C 14.328125 -78.328125 15.363281 -78.039062 16.46875 -77.46875 C 17.570312 -76.894531 18.742188 -76.253906 19.984375 -75.546875 L 62.984375 -50.28125 C 64.035156 -49.664062 64.828125 -48.804688 65.359375 -47.703125 C 65.890625 -46.597656 66.15625 -45.425781 66.15625 -44.1875 C 66.15625 -42.957031 65.890625 -41.789062 65.359375 -40.6875 C 64.828125 -39.582031 64.035156 -38.722656 62.984375 -38.109375 L 19.984375 -13.359375 C 18.835938 -12.742188 17.773438 -12.210938 16.796875 -11.765625 C 15.828125 -11.328125 14.859375 -11.109375 13.890625 -11.109375 Z M 13.890625 -11.109375 "/></g></g></g></svg>